<svg xmlns="http://www.w3.org/2000/svg" xmlns:xlink="http://www.w3.org/1999/xlink" width="1024" zoomAndPan="magnify" viewBox="0 0 768 767.999994" height="1024" preserveAspectRatio="xMidYMid meet" version="1.0"><defs><clipPath id="86448fd54a"><path d="M 33 39 L 733.65625 39 L 733.65625 738.375 L 33 738.375 Z M 33 39 " clip-rule="nonzero"/></clipPath></defs><g clip-path="url(#86448fd54a)"><path fill="#a43450" d="M 402.558594 738.363281 L 364.347656 738.363281 L 358.457031 737.214844 C 344.957031 735.492188 331.308594 734.484375 317.953125 731.898438 C 228.605469 714.230469 155.777344 668.984375 102.34375 595.582031 C 34.828125 502.644531 16.441406 399.507812 48.761719 289.332031 C 94.730469 132.042969 243.257812 29.625 406.722656 40.109375 C 482.710938 45.140625 550.078125 72.289062 608.113281 121.414062 C 673.039062 176.285156 712.972656 245.761719 727.910156 329.839844 C 730.066406 342.480469 731.359375 355.410156 733.082031 368.195312 L 733.082031 409.132812 L 731.789062 416.457031 C 730.207031 428.953125 729.203125 441.738281 726.761719 454.234375 C 710.960938 534.964844 671.316406 602.046875 608.828125 655.480469 C 602.96875 660.515625 596.941406 665.34375 590.75 669.96875 C 584.558594 674.59375 578.21875 679 571.726562 683.191406 C 565.234375 687.378906 558.605469 691.34375 551.84375 695.082031 C 545.078125 698.820312 538.195312 702.324219 531.195312 705.589844 C 524.191406 708.859375 517.085938 711.882812 509.878906 714.664062 C 502.667969 717.449219 495.375 719.980469 487.992188 722.265625 C 480.609375 724.550781 473.160156 726.578125 465.636719 728.355469 C 458.117188 730.128906 450.546875 731.648438 442.921875 732.90625 C 429.5625 735.203125 416.058594 736.496094 402.558594 738.363281 Z M 235.355469 220.671875 L 139.691406 173.554688 C 89.703125 230.871094 62.265625 298.527344 58.386719 376.09375 L 203.035156 376.09375 C 203.785156 349.4375 206.871094 323.054688 212.300781 296.949219 C 217.730469 270.839844 225.414062 245.414062 235.355469 220.671875 Z M 627.359375 173.554688 L 531.550781 220.671875 C 551.515625 269.652344 562.144531 321.796875 564.011719 376.09375 L 708.519531 376.09375 C 704.640625 298.527344 677.347656 230.871094 627.359375 173.554688 Z M 203.035156 401.375 L 58.386719 401.375 C 62.121094 475.496094 87.257812 540.710938 134.519531 597.878906 C 165.03125 577.289062 197.589844 560.722656 232.195312 548.179688 C 223.28125 524.695312 216.375 500.632812 211.480469 475.996094 C 206.589844 451.359375 203.773438 426.484375 203.035156 401.375 Z M 633.96875 596.15625 C 679.789062 540.421875 705.070312 475.207031 708.519531 401.375 L 565.449219 401.375 C 562.144531 426.800781 559.992188 451.792969 555.25 476.214844 C 550.511719 500.632812 542.753906 524.191406 536.863281 546.597656 Z M 259.34375 226.128906 C 254.390625 238 249.996094 250.070312 246.160156 262.347656 C 242.324219 274.625 239.066406 287.050781 236.378906 299.628906 C 233.691406 312.203125 231.589844 324.878906 230.078125 337.652344 C 228.5625 350.421875 227.640625 363.238281 227.3125 376.09375 L 370.957031 376.09375 L 370.957031 243.367188 C 333.019531 242.359375 295.816406 236.613281 259.34375 226.128906 Z M 507.5625 226.128906 C 470.5 236.902344 433.585938 242.074219 395.949219 243.65625 L 395.949219 376.09375 L 539.59375 376.09375 C 539.28125 363.234375 538.371094 350.417969 536.863281 337.644531 C 535.355469 324.871094 533.257812 312.195312 530.570312 299.617188 C 527.886719 287.039062 524.621094 274.613281 520.777344 262.339844 C 516.933594 250.0625 512.527344 237.996094 507.5625 226.128906 Z M 395.949219 401.230469 L 395.949219 521.890625 C 415.539062 522.457031 435.007812 524.273438 454.359375 527.351562 C 473.710938 530.429688 492.785156 534.738281 511.582031 540.277344 C 527.382812 505.085938 542.609375 426.945312 538.730469 401.230469 Z M 370.8125 521.03125 L 370.8125 401.230469 L 227.3125 401.230469 C 227.914062 424.898438 230.519531 448.34375 235.125 471.566406 C 239.730469 494.789062 246.269531 517.453125 254.75 539.5625 C 274.570312 535.394531 293.386719 530.511719 312.347656 527.496094 C 331.308594 524.476562 351.132812 523.183594 370.8125 521.03125 Z M 151.039062 615.980469 C 203.46875 668.550781 265.808594 700.296875 340.933594 711.214844 C 330.488281 701.207031 320.542969 690.726562 311.097656 679.765625 C 301.65625 668.804688 292.757812 657.421875 284.402344 645.609375 C 276.050781 633.796875 268.28125 621.613281 261.097656 609.054688 C 253.910156 596.5 247.34375 583.628906 241.390625 570.445312 C 209.414062 581.9375 179.296875 597.113281 151.039062 615.980469 Z M 426.113281 711.214844 C 501.097656 700.296875 563.582031 668.695312 616.011719 615.980469 C 587.769531 597.015625 557.605469 581.882812 525.515625 570.585938 C 519.582031 583.765625 513.03125 596.625 505.859375 609.171875 C 498.6875 621.71875 490.933594 633.890625 482.59375 645.691406 C 474.25 657.492188 465.363281 668.863281 455.929688 679.808594 C 446.492188 690.757812 436.554688 701.222656 426.113281 711.214844 Z M 502.390625 562.972656 C 485.144531 557.839844 467.636719 553.855469 449.871094 551.019531 C 432.101562 548.183594 414.222656 546.515625 396.238281 546.023438 L 396.238281 705.757812 C 407.492188 695.910156 418.191406 685.496094 428.339844 674.511719 C 438.484375 663.527344 448.019531 652.035156 456.9375 640.035156 C 465.859375 628.035156 474.121094 615.59375 481.714844 602.714844 C 489.3125 589.835938 496.203125 576.589844 502.390625 562.972656 Z M 264.515625 562.972656 C 270.722656 576.59375 277.636719 589.84375 285.257812 602.726562 C 292.878906 615.609375 301.164062 628.050781 310.109375 640.050781 C 319.054688 652.050781 328.613281 663.542969 338.78125 674.523438 C 348.953125 685.507812 359.675781 695.917969 370.957031 705.757812 L 370.957031 546.023438 C 334.746094 547.082031 299.265625 552.734375 264.515625 562.972656 Z M 244.261719 195.964844 C 258.914062 172.550781 271.839844 149.28125 287.355469 127.878906 C 302.867188 106.476562 321.253906 86.652344 338.207031 66.542969 C 269.542969 76.5 209.546875 105.707031 158.21875 154.164062 C 185.277344 171.441406 213.957031 185.375 244.261719 195.964844 Z M 426.113281 66.109375 C 466.046875 104.894531 497.363281 147.699219 520.777344 196.109375 C 539.882812 191.65625 588.71875 168.242188 608.542969 154.019531 C 557.550781 105.898438 497.648438 76.597656 426.113281 66.109375 Z M 370.957031 71.425781 C 327.863281 109.492188 294.394531 153.015625 269.6875 203.578125 C 293.960938 212.054688 356.449219 221.101562 370.957031 218.375 Z M 497.507812 203.722656 C 491.351562 191.152344 484.589844 178.921875 477.210938 167.03125 C 469.835938 155.140625 461.882812 143.648438 453.355469 132.550781 C 444.828125 121.457031 435.769531 110.8125 426.179688 100.625 C 416.585938 90.4375 406.511719 80.75 395.949219 71.570312 L 395.949219 219.378906 C 430.445312 218.332031 464.296875 213.113281 497.507812 203.722656 Z M 497.507812 203.722656 " fill-opacity="1" fill-rule="nonzero"/></g></svg>